<?xml version="1.0" standalone="no"?>
<!DOCTYPE svg PUBLIC "-//W3C//DTD SVG 20010904//EN"
 "http://www.w3.org/TR/2001/REC-SVG-20010904/DTD/svg10.dtd">
<svg version="1.0" xmlns="http://www.w3.org/2000/svg"
 width="250.000000pt" height="250.000000pt" viewBox="0 0 250.000000 250.000000"
 preserveAspectRatio="xMidYMid meet">
<metadata>
Created by potrace 1.11, written by Peter Selinger 2001-2013
</metadata>
<g transform="translate(0.000000,250.000000) scale(0.100000,-0.100000)"
fill="#000000" stroke="none">
<path d="M520 2109 c-182 -11 -242 -21 -307 -55 -66 -35 -98 -67 -127 -130
-64 -136 -80 -303 -73 -766 6 -362 14 -437 57 -552 30 -78 97 -146 171 -174
85 -32 209 -42 641 -52 420 -10 1084 1 1252 20 179 21 260 85 315 247 47 141
66 652 36 973 -24 256 -62 347 -181 428 -52 36 -138 51 -359 62 -244 12 -1199
11 -1425 -1z m107 -336 c11 -27 37 -89 59 -140 21 -51 40 -90 43 -87 3 2 19
39 36 82 77 189 79 192 103 192 12 0 22 -3 21 -7 0 -5 -33 -84 -73 -178 -83
-194 -93 -203 -131 -115 -40 91 -125 293 -125 297 0 1 11 3 24 3 19 0 28 -10
43 -47z m311 5 c-2 -25 -8 -34 -25 -36 -19 -3 -23 1 -23 26 0 34 6 42 32 42
16 0 19 -6 16 -32z m267 -103 c0 -108 -3 -136 -18 -158 -55 -84 -178 -85 -228
-3 l-19 31 0 -42 c0 -39 -2 -43 -25 -43 l-25 0 0 130 0 130 26 0 c25 0 26 -2
22 -45 -2 -25 0 -45 4 -45 5 0 8 6 8 14 0 23 46 64 85 75 29 8 47 7 79 -4 22
-8 44 -15 47 -15 3 0 4 25 1 56 -4 54 -4 56 19 52 24 -3 24 -4 24 -133z m485
39 c69 -28 103 -99 80 -168 -23 -70 -103 -110 -173 -87 -54 18 -80 53 -85 114
-7 82 21 124 97 148 37 11 37 11 81 -7z m238 -20 c25 -28 28 -49 9 -57 -17 -7
-32 3 -40 26 -10 28 -52 19 -52 -12 0 -19 9 -27 45 -40 95 -35 87 -141 -11
-157 -28 -5 -39 -1 -62 21 -33 33 -37 75 -7 75 11 0 20 -6 20 -13 0 -8 9 -22
19 -31 25 -23 61 -6 61 28 0 19 -10 28 -50 44 -59 25 -78 58 -58 100 15 32 55
54 83 46 11 -3 30 -17 43 -30z m-477 -13 c31 -31 39 -46 39 -75 l0 -36 -110 0
c-60 0 -110 -3 -110 -6 0 -27 40 -61 82 -69 24 -5 73 19 86 41 5 9 18 14 31
12 l21 -3 -22 -32 c-95 -135 -303 -16 -232 132 23 50 66 75 128 75 43 0 53 -4
87 -39z m-736 -290 c24 -10 52 -35 70 -61 26 -38 30 -52 30 -110 0 -55 -4 -73
-27 -107 l-27 -41 26 -23 c52 -49 77 -107 77 -178 0 -74 -17 -116 -68 -169
-43 -47 -77 -62 -149 -69 -118 -11 -211 57 -248 179 -12 38 -18 75 -15 83 7
19 75 20 81 3 2 -7 9 -33 15 -58 8 -28 26 -58 50 -82 34 -35 43 -38 91 -38 65
0 110 24 135 72 22 41 23 113 4 153 -19 39 -84 71 -160 80 l-60 7 0 38 c0 37
1 38 43 45 102 16 147 49 147 107 0 62 -35 97 -98 98 -53 0 -85 -29 -102 -89
-10 -39 -13 -41 -50 -41 -21 0 -41 4 -44 9 -10 16 24 109 51 142 15 17 41 40
58 50 39 24 117 24 170 0z m1061 -5 c59 -27 116 -90 132 -145 7 -23 12 -112
12 -227 0 -177 -2 -192 -24 -239 -75 -161 -288 -194 -413 -63 -58 60 -63 86
-63 308 0 217 4 237 57 306 63 81 196 108 299 60z m477 -9 c55 -42 82 -93 82
-157 0 -140 -138 -235 -261 -181 -63 28 -90 54 -110 108 -34 89 -1 181 87 241
29 20 44 23 100 20 53 -3 73 -9 102 -31z m-1066 -99 l-76 -113 50 -7 c103 -16
172 -65 209 -150 92 -211 -93 -428 -312 -368 -100 28 -178 134 -178 241 0 87
28 146 158 334 l118 170 49 5 c28 3 52 4 54 3 2 -2 -30 -53 -72 -115z"/>
<path d="M1006 1655 c-19 -18 -26 -34 -26 -62 0 -48 21 -78 64 -93 77 -25 143
49 111 126 -24 59 -100 74 -149 29z"/>
<path d="M1576 1655 c-19 -17 -26 -34 -26 -60 0 -49 15 -74 57 -91 52 -22 104
1 124 55 12 31 -6 86 -34 106 -34 23 -90 19 -121 -10z"/>
<path d="M1296 1655 c-14 -13 -26 -29 -26 -35 0 -6 34 -10 90 -10 50 0 90 2
90 4 0 18 -17 39 -41 51 -42 22 -82 19 -113 -10z"/>
<path d="M1582 1301 c-67 -42 -72 -63 -72 -281 0 -218 6 -239 72 -280 47 -29
134 -27 178 3 63 43 70 70 70 277 0 203 -7 232 -64 274 -40 30 -141 34 -184 7z"/>
<path d="M2069 1291 c-33 -34 -39 -83 -14 -131 48 -92 195 -50 195 56 0 93
-115 141 -181 75z"/>
<path d="M1062 1053 c-18 -9 -45 -32 -60 -51 -23 -31 -27 -45 -27 -107 0 -60
4 -77 25 -108 32 -47 74 -67 140 -67 62 0 95 18 133 70 37 52 39 149 4 201
-50 74 -138 100 -215 62z"/>
</g>
</svg>
