<?xml version="1.0" encoding="iso-8859-1"?>
<!-- Generator: Adobe Illustrator 19.0.1, SVG Export Plug-In . SVG Version: 6.00 Build 0)  -->
<svg version="1.1" xmlns="http://www.w3.org/2000/svg" xmlns:xlink="http://www.w3.org/1999/xlink" x="0px" y="0px"
	 viewBox="0 0 128 128" style="enable-background:new 0 0 128 128;" xml:space="preserve">
<g id="_x31_0">
	<path style="fill:#2D2D2D;" d="M83.449,16.344H48.762c-3.54,0-6.424,2.883-6.424,6.424v68.489c0,3.54,2.883,6.424,6.424,6.424
		h34.687c3.54,0,6.424-2.883,6.424-6.424V22.768C89.873,19.228,86.989,16.344,83.449,16.344z M85.59,91.257
		c0,1.185-0.956,2.141-2.141,2.141H48.762c-1.185,0-2.141-0.956-2.141-2.141V81.95h38.97V91.257z M85.59,79.095h-38.97V28.021h38.97
		V79.095z M85.59,25.166h-38.97v-2.398c0-1.185,0.956-2.141,2.141-2.141h34.687c1.185,0,2.141,0.956,2.141,2.141V25.166z
		 M63.292,87.905c0-1.555,1.261-2.816,2.816-2.816c1.555,0,2.816,1.261,2.816,2.816c0,1.555-1.261,2.816-2.816,2.816
		C64.553,90.722,63.292,89.461,63.292,87.905z M128,82.593c0,16.302-28.107,29.063-63.993,29.063C28.121,111.656,0,98.88,0,82.578
		c0-10.306,11.42-19.342,27.593-22.197v-6.938l9.935,9.921L27.593,73.3v-8.55c-13.518,2.584-23.31,9.907-23.31,17.829
		c0,13.447,27.35,24.795,59.725,24.795c32.36,0,59.711-11.348,59.711-24.781c0-8.051-10.263-15.93-26.793-20.584l1.156-4.111
		C116.823,63.151,128,72.386,128,82.593z"/>
</g>
<g id="Layer_1">
</g>
</svg>
