<?xml version="1.0" encoding="iso-8859-1"?>
<!-- Generator: Adobe Illustrator 19.0.1, SVG Export Plug-In . SVG Version: 6.00 Build 0)  -->
<svg version="1.1" xmlns="http://www.w3.org/2000/svg" xmlns:xlink="http://www.w3.org/1999/xlink" x="0px" y="0px"
	 viewBox="0 0 128 128" style="enable-background:new 0 0 128 128;" xml:space="preserve">
<g id="_x31_3">
	<path style="fill:#2D2D2D;" d="M58.463,68.756c0-3.253,2.637-5.891,5.891-5.891c3.253,0,5.891,2.637,5.891,5.891
		c0,3.253-2.637,5.891-5.891,5.891C61.1,74.647,58.463,72.01,58.463,68.756z M64.353,97.14c3.253,0,5.891-2.637,5.891-5.891
		s-2.637-5.891-5.891-5.891c-3.253,0-5.891,2.637-5.891,5.891S61.1,97.14,64.353,97.14z M75.6,74.112
		c3.253,0,5.891,2.637,5.891,5.891c0,3.253-2.637,5.891-5.891,5.891c-3.253,0-5.891-2.637-5.891-5.891
		C69.709,76.749,72.346,74.112,75.6,74.112z M47.216,80.003c0,3.253,2.637,5.891,5.891,5.891c3.253,0,5.891-2.637,5.891-5.891
		c0-3.253-2.637-5.891-5.891-5.891C49.854,74.112,47.216,76.749,47.216,80.003z M78.962,22.412
		c-4.832-2.517-10.062-3.792-15.54-3.792c-4.989,0-9.8,1.072-14.295,3.185l2.049,4.362c3.85-1.809,7.97-2.727,12.246-2.727
		c4.696,0,9.177,1.092,13.316,3.246L78.962,22.412z M77.849,24.548 M83.51,14.453c-6.144-3.265-13.091-4.991-20.089-4.991
		c-6.492,0-12.718,1.409-18.507,4.189l2.087,4.346c5.132-2.465,10.656-3.715,16.42-3.715c6.213,0,12.377,1.531,17.826,4.426
		L83.51,14.453z M77.849,24.548 M88.211,6.232C80.63,2.156,72.057,0,63.421,0c-7.992,0-15.676,1.762-22.837,5.239l2.104,4.337
		c6.5-3.155,13.476-4.755,20.733-4.755c7.842,0,15.625,1.956,22.508,5.658L88.211,6.232z M50.151,23.986 M69.101,128H58.9
		c-12.846,0-23.296-10.451-23.296-23.296V55.302c0-12.845,10.451-23.296,23.296-23.296h10.201c12.845,0,23.296,10.451,23.296,23.296
		v49.403C92.397,117.549,81.946,128,69.101,128z M58.9,36.826c-10.189,0-18.477,8.289-18.477,18.476v49.403
		c0,10.187,8.288,18.476,18.477,18.476h10.201c10.187,0,18.476-8.289,18.476-18.476V55.302c0-10.187-8.289-18.476-18.476-18.476
		H58.9z"/>
</g>
<g id="Layer_1">
</g>
</svg>
