<?xml version="1.0" encoding="iso-8859-1"?>
<!-- Generator: Adobe Illustrator 19.0.1, SVG Export Plug-In . SVG Version: 6.00 Build 0)  -->
<svg version="1.1" xmlns="http://www.w3.org/2000/svg" xmlns:xlink="http://www.w3.org/1999/xlink" x="0px" y="0px"
	 viewBox="0 0 128 128" style="enable-background:new 0 0 128 128;" xml:space="preserve">
<g id="_x31_4">
	<path style="fill:#2D2D2D;" d="M110.361,63.557l-2.701,6.484c8.341,3.474,13.306,8.51,13.306,13.475
		c0,6.147-7.244,12.364-18.033,15.487l1.955,6.752C118.927,101.704,128,92.969,128,83.516C128,75.485,121.572,68.213,110.361,63.557
		z M63.269,43.077c-1.364,0-2.672,0.225-3.91,0.605c0.661,1.083,1.055,2.335,1.055,3.685c0,3.938-3.193,7.131-7.131,7.131
		c-0.956,0-1.857-0.197-2.687-0.535c-0.098,0.633-0.169,1.28-0.169,1.955c0,7.089,5.739,12.842,12.842,12.842
		c7.089,0,12.828-5.753,12.828-12.842C76.097,48.83,70.358,43.077,63.269,43.077z M63.269,43.077c-1.364,0-2.672,0.225-3.91,0.605
		c0.661,1.083,1.055,2.335,1.055,3.685c0,3.938-3.193,7.131-7.131,7.131c-0.956,0-1.857-0.197-2.687-0.535
		c-0.098,0.633-0.169,1.28-0.169,1.955c0,7.089,5.739,12.842,12.842,12.842c7.089,0,12.828-5.753,12.828-12.842
		C76.097,48.83,70.358,43.077,63.269,43.077z M63.269,36.424c-10.789,0-19.552,8.777-19.552,19.566
		c0,10.789,8.763,19.566,19.552,19.566c10.789,0,19.552-8.777,19.552-19.566C82.82,45.201,74.057,36.424,63.269,36.424z
		 M63.269,72.742c-9.227,0-16.738-7.525-16.738-16.752s7.511-16.753,16.738-16.753s16.738,7.525,16.738,16.753
		S72.496,72.742,63.269,72.742z M63.269,43.077c-1.364,0-2.672,0.225-3.91,0.605c0.661,1.083,1.055,2.335,1.055,3.685
		c0,3.938-3.193,7.131-7.131,7.131c-0.956,0-1.857-0.197-2.687-0.535c-0.098,0.633-0.169,1.28-0.169,1.955
		c0,7.089,5.739,12.842,12.842,12.842c7.089,0,12.828-5.753,12.828-12.842C76.097,48.83,70.358,43.077,63.269,43.077z
		 M63.269,36.424c-10.789,0-19.552,8.777-19.552,19.566c0,10.789,8.763,19.566,19.552,19.566c10.789,0,19.552-8.777,19.552-19.566
		C82.82,45.201,74.057,36.424,63.269,36.424z M63.269,72.742c-9.227,0-16.738-7.525-16.738-16.752s7.511-16.753,16.738-16.753
		s16.738,7.525,16.738,16.753S72.496,72.742,63.269,72.742z M63.269,43.077c-1.364,0-2.672,0.225-3.91,0.605
		c0.661,1.083,1.055,2.335,1.055,3.685c0,3.938-3.193,7.131-7.131,7.131c-0.956,0-1.857-0.197-2.687-0.535
		c-0.098,0.633-0.169,1.28-0.169,1.955c0,7.089,5.739,12.842,12.842,12.842c7.089,0,12.828-5.753,12.828-12.842
		C76.097,48.83,70.358,43.077,63.269,43.077z M63.269,36.424c-10.789,0-19.552,8.777-19.552,19.566
		c0,10.789,8.763,19.566,19.552,19.566c10.789,0,19.552-8.777,19.552-19.566C82.82,45.201,74.057,36.424,63.269,36.424z
		 M63.269,72.742c-9.227,0-16.738-7.525-16.738-16.752s7.511-16.753,16.738-16.753s16.738,7.525,16.738,16.753
		S72.496,72.742,63.269,72.742z M63.269,43.077c-1.364,0-2.672,0.225-3.91,0.605c0.661,1.083,1.055,2.335,1.055,3.685
		c0,3.938-3.193,7.131-7.131,7.131c-0.956,0-1.857-0.197-2.687-0.535c-0.098,0.633-0.169,1.28-0.169,1.955
		c0,7.089,5.739,12.842,12.842,12.842c7.089,0,12.828-5.753,12.828-12.842C76.097,48.83,70.358,43.077,63.269,43.077z
		 M55.349,96.345L35.446,85.134v5.612c-12.659-1.238-24.925-6.245-24.925-11.562c0-2.279,2.194-4.628,5.626-6.667l3.826-8.285
		C8.004,68.044,0,73.853,0,81.393c0,10.592,17.16,20.803,35.446,22.435v5.612L55.349,96.345z M98.391,18.56H28.132
		c-3.488,0-6.33,2.841-6.33,6.33v49.385c0,4.262,3.474,7.736,7.736,7.736h67.446c4.262,0,7.736-3.474,7.736-7.736V24.89
		C104.721,21.401,101.88,18.56,98.391,18.56z M100.501,74.275c0,1.941-1.575,3.516-3.516,3.516H29.538
		c-1.941,0-3.516-1.575-3.516-3.516V35.439h74.479V74.275z M26.022,24.89c0-1.167,0.942-2.11,2.11-2.11h70.259
		c1.167,0,2.11,0.942,2.11,2.11v3.151H26.022V24.89z"/>
</g>
<g id="Layer_1">
</g>
</svg>
