<?xml version="1.0" encoding="iso-8859-1"?>
<!-- Generator: Adobe Illustrator 19.0.1, SVG Export Plug-In . SVG Version: 6.00 Build 0)  -->
<svg version="1.1" xmlns="http://www.w3.org/2000/svg" xmlns:xlink="http://www.w3.org/1999/xlink" x="0px" y="0px"
	 viewBox="0 0 128 128" style="enable-background:new 0 0 128 128;" xml:space="preserve">
<g id="_x32_">
	<path style="fill:#2D2D2D;" d="M80.567,98.045c-0.486-5.435-0.278-9.204-0.278-14.17c2.084-1.077,5.592-7.241,7.016-13.337
		c0.365-0.052,0.712-0.122,1.059-0.208c7.241-1.632,12.503-8.197,12.503-15.611V43.761c0-4.185-1.632-8.144-4.567-11.166
		c-0.59-0.608-1.233-1.163-1.91-1.65h0.035C95.171,19.831,92.601,7.78,79.073,5.904C76.85,1.98,71.12,0,63.67,0
		C40.522,0.417,33.211,13.771,34.201,31.553c-0.399,0.347-0.799,0.712-1.163,1.094H32.43l-0.538,1.354
		c-2.171,2.779-3.369,6.217-3.369,9.759v10.958c0,5.366,2.692,10.367,7.224,13.354c1.493,0.99,3.126,1.719,4.845,2.153
		c1.424,6.199,5.175,12.538,7.311,13.649c0,4.966,0.174,8.735-0.295,14.17C42.623,111.399,13.554,110.322,3.499,128h121.002
		C114.481,110.322,85.533,111.399,80.567,98.045z M33.732,54.718V43.761c0-2.518,0.851-4.88,2.483-6.825l0.417-0.486
		c2.032-2.223,4.88-3.49,7.901-3.49h40.322c2.917,0,5.661,1.163,7.71,3.265c1.98,2.049,3.091,4.723,3.091,7.537v10.958
		c0,5.001-3.542,9.429-8.457,10.523c-0.764,0.191-1.546,0.278-2.344,0.278H44.533c-2.101,0-4.15-0.608-5.922-1.789
		C35.556,61.699,33.732,58.33,33.732,54.718z"/>
</g>
<g id="Layer_1">
</g>
</svg>
