<?xml version="1.0" encoding="iso-8859-1"?>
<!-- Generator: Adobe Illustrator 19.0.1, SVG Export Plug-In . SVG Version: 6.00 Build 0)  -->
<svg version="1.1" xmlns="http://www.w3.org/2000/svg" xmlns:xlink="http://www.w3.org/1999/xlink" x="0px" y="0px"
	 viewBox="0 0 128 128" style="enable-background:new 0 0 128 128;" xml:space="preserve">
<g id="_x33_">
	<path style="fill:#2D2D2D;" d="M121.748,11.725H6.252C2.813,11.725,0,14.521,0,17.961v75.701c0,3.439,2.813,6.236,6.252,6.236
		h46.304l-3.52,11.186h-4.291v5.191h41.177v-5.191h-4.307l-3.52-11.186h43.653c3.439,0,6.252-2.797,6.252-6.236V17.961
		C128,14.521,125.187,11.725,121.748,11.725z M78.256,111.084h-25.86l3.52-11.186h18.837L78.256,111.084z M123.178,93.662
		c0,0.771-0.643,1.414-1.43,1.414H6.252c-0.788,0-1.43-0.643-1.43-1.414V17.961c0-0.788,0.643-1.414,1.43-1.414h115.496
		c0.788,0,1.43,0.627,1.43,1.414V93.662z M120.698,92.507H7.997V19.423h112.702V92.507z M9.604,90.9h109.487V21.031H9.604V90.9z
		 M64,72.254c-19.117,0-34.253-15.546-34.889-16.207l-1.602-1.669l1.602-1.669C29.747,52.047,44.884,36.5,64,36.5
		s34.253,15.547,34.887,16.208l1.603,1.669l-1.603,1.669C98.254,56.708,83.117,72.254,64,72.254z M34.368,54.378
		C38.707,58.236,50.472,67.432,64,67.432c13.527,0,25.293-9.197,29.631-13.055C89.293,50.52,77.527,41.322,64,41.322
		C50.472,41.322,38.707,50.519,34.368,54.378z M28.279,87.128H13.814V72.663h3.214v11.251h11.251V87.128z M17.029,38.911h-3.214
		V24.446h14.465v3.214H17.029V38.911z M115.07,87.128h-14.465v-3.214h11.251V72.663h3.214V87.128z M115.07,38.911h-3.214V27.66
		h-11.251v-3.214h14.465V38.911z M109.445,81.101h-7.233v-1.607h5.625v-5.625h1.607V81.101z M109.445,37.706h-1.607V32.08h-5.625
		v-1.607h7.233V37.706z M26.672,81.101h-7.233v-7.233h1.607v5.625h5.625V81.101z M21.047,37.706h-1.607v-7.233h7.233v1.607h-5.625
		V37.706z M73.547,54.381c0,5.079-4.115,9.193-9.193,9.193c-5.095,0-9.209-4.115-9.209-9.193c0-3.006,1.446-5.69,3.681-7.361
		c-0.113,0.289-0.177,0.611-0.177,0.932c0,1.527,1.254,2.78,2.78,2.78c1.527,0,2.78-1.254,2.78-2.78
		c0-1.173-0.739-2.186-1.768-2.572c0.611-0.145,1.254-0.209,1.913-0.209C69.432,45.171,73.547,49.302,73.547,54.381z"/>
</g>
<g id="Layer_1">
</g>
</svg>
