<?xml version="1.0" encoding="iso-8859-1"?>
<!-- Generator: Adobe Illustrator 19.0.1, SVG Export Plug-In . SVG Version: 6.00 Build 0)  -->
<svg version="1.1" xmlns="http://www.w3.org/2000/svg" xmlns:xlink="http://www.w3.org/1999/xlink" x="0px" y="0px"
	 viewBox="0 0 128 128" style="enable-background:new 0 0 128 128;" xml:space="preserve">
<g id="_x34_">
	<path style="fill:#2D2D2D;" d="M91.145,99.339l-0.964-4.993c20.19-3.896,32.733-12.347,32.733-22.054
		c0-8.574-9.071-15.953-24.887-20.245l1.331-4.909C124.278,53.9,128,65.8,128,72.291C128,84.776,114.222,94.887,91.145,99.339z
		 M71.272,88.887l-3.594,3.594l4.255,4.272h-8.036c-32.432,0-58.811-10.969-58.811-24.464c0-7.714,7.053-14.343,19.869-18.666
		l-1.61-4.815C8.29,53.878,0,62.219,0,72.289c0,16.852,27.465,29.55,63.897,29.55h8.036l-4.255,4.272l3.594,3.594l10.409-10.409
		L71.272,88.887z M30.289,49.233c0.088,2.182,0.53,3.949,1.324,5.3c1.512,2.536,4.21,3.805,8.093,3.805
		c3.151,0,5.53-0.881,7.137-2.641c1.608-1.76,2.411-3.801,2.411-6.124c0-2.207-0.687-3.949-2.063-5.223
		c-0.921-0.844-1.627-1.268-2.119-1.268c0.656-0.252,1.286-0.725,1.892-1.419c0.959-1.111,1.439-2.473,1.439-4.089
		c0-2.283-0.805-4.103-2.411-5.46c-1.608-1.356-3.722-2.035-6.344-2.035c-1.411,0-2.603,0.171-3.573,0.512
		c-0.972,0.341-1.81,0.833-2.515,1.477c-0.945,0.907-1.639,1.899-2.079,2.972c-0.416,1.223-0.649,2.517-0.7,3.879h5.035
		c-0.025-1.349,0.262-2.429,0.859-3.237c0.598-0.806,1.531-1.21,2.803-1.21c1.108,0,1.967,0.328,2.578,0.983
		c0.609,0.656,0.916,1.508,0.916,2.555c0,1.616-0.598,2.689-1.793,3.219c-0.69,0.315-1.911,0.485-3.659,0.512v3.861
		c1.786,0,3.094,0.171,3.925,0.51c1.459,0.606,2.189,1.811,2.189,3.616c0,1.363-0.394,2.407-1.18,3.132
		c-0.786,0.725-1.709,1.088-2.767,1.088c-1.725,0-2.914-0.662-3.569-1.987c-0.351-0.719-0.528-1.627-0.528-2.725H30.289z
		 M70.415,37.119c-0.189-2.171-1.041-3.909-2.555-5.214c-1.515-1.306-3.546-1.96-6.094-1.96c-1.768,0-3.285,0.404-4.553,1.212
		c-1.268,0.808-2.293,1.874-3.076,3.199c-0.907,1.551-1.52,3.495-1.836,5.829c-0.175,1.313-0.265,3.017-0.265,5.111
		c0,3.571,0.637,6.485,1.912,8.743c1.641,2.891,4.189,4.334,7.647,4.334c3.217,0,5.589-0.977,7.116-2.934
		c1.526-1.955,2.29-4.214,2.29-6.775c0-2.574-0.778-4.689-2.336-6.341c-1.56-1.652-3.556-2.48-5.992-2.48
		c-1.136,0-2.144,0.184-3.028,0.55c-0.882,0.366-1.659,0.945-2.328,1.742c0.151-2.121,0.429-3.723,0.833-4.808
		c0.745-1.969,1.993-2.954,3.748-2.954c1.172,0,2.05,0.43,2.631,1.288c0.339,0.53,0.51,1.015,0.51,1.457H70.415z M57.45,48.968
		c0-1.829,0.53-3.156,1.589-3.975c0.707-0.555,1.522-0.833,2.442-0.833c1.136,0,2.094,0.425,2.877,1.278
		c0.781,0.851,1.174,2.078,1.174,3.68c0,1.439-0.344,2.609-1.033,3.512c-0.687,0.902-1.631,1.353-2.829,1.353
		c-1.223,0-2.233-0.467-3.028-1.401C57.847,51.648,57.45,50.443,57.45,48.968z M83.057,30.021c-3.495,0-5.945,1.23-7.353,3.69
		c-1.407,2.462-2.111,5.957-2.111,10.487s0.704,8.018,2.111,10.467c1.407,2.447,3.858,3.672,7.353,3.672s5.947-1.225,7.354-3.672
		c1.407-2.449,2.111-5.937,2.111-10.467s-0.704-8.025-2.111-10.487C89.004,31.251,86.552,30.021,83.057,30.021z M79.102,44.198
		c0-3.306,0.258-5.755,0.776-7.344c0.517-1.589,1.576-2.384,3.179-2.384c1.603,0,2.654,0.795,3.152,2.384
		c0.498,1.589,0.748,4.038,0.748,7.344c0,3.154-0.25,5.568-0.748,7.24c-0.498,1.671-1.55,2.507-3.152,2.507
		c-1.603,0-2.662-0.836-3.179-2.507C79.36,49.766,79.102,47.352,79.102,44.198z M101.83,23.798c0-1.487-0.435-2.776-1.306-3.868
		c-0.871-1.089-2.192-1.636-3.965-1.636c-1.773,0-3.094,0.546-3.965,1.636c-0.871,1.091-1.306,2.381-1.306,3.868
		c0,1.513,0.435,2.808,1.306,3.882c0.871,1.074,2.192,1.611,3.965,1.611c1.773,0,3.094-0.536,3.965-1.611
		C101.394,26.606,101.83,25.311,101.83,23.798z M96.548,27.03c-0.788,0-1.396-0.28-1.821-0.841c-0.425-0.56-0.639-1.358-0.639-2.391
		c0-1.033,0.214-1.828,0.639-2.386s1.033-0.836,1.821-0.836c0.788,0,1.394,0.278,1.818,0.836C98.788,21.97,99,22.765,99,23.798
		c0,1.033-0.212,1.831-0.634,2.391C97.942,26.75,97.336,27.03,96.548,27.03z"/>
</g>
<g id="Layer_1">
</g>
</svg>
