<?xml version="1.0" encoding="iso-8859-1"?>
<!-- Generator: Adobe Illustrator 19.0.1, SVG Export Plug-In . SVG Version: 6.00 Build 0)  -->
<svg version="1.1" xmlns="http://www.w3.org/2000/svg" xmlns:xlink="http://www.w3.org/1999/xlink" x="0px" y="0px"
	 viewBox="0 0 128 128" style="enable-background:new 0 0 128 128;" xml:space="preserve">
<g id="_x35_">
	<path style="fill:#2D2D2D;" d="M64,93.501c-4.348,0-8.594-0.183-12.678-0.569c3.413,17.879,9.732,28.973,15.604,28.973
		c6.055,0,12.069-10.992,15.299-27.997l5.994,1.138C84.175,116.297,76.597,128,66.926,128c-10.91,0-18.326-15.766-21.882-35.759
		C18.692,88.564,0,77.43,0,63.919c0-10.301,10.87-19.322,26.453-22.491V29.724l10.931,10.91l3.21,3.21L26.453,57.986V47.665
		C13.613,50.591,6.095,57.803,6.095,63.919c0,9.001,14.649,18.509,37.994,22.044C43.134,78.852,42.667,71.375,42.667,64
		c0-31.025,8.493-64,24.259-64c11.418,0,23.548,20.765,24.442,59.388h10.281L88.381,72.655L75.134,59.388h10.138
		C84.419,28.587,75.215,6.095,66.926,6.095c-8.594,0-18.164,23.771-18.164,57.905c0,8.249,0.569,15.888,1.524,22.735
		c4.328,0.427,8.919,0.671,13.714,0.671c34.641,0,57.905-12.129,57.905-23.487c0-7.497-9.854-14.913-25.702-19.362l1.646-5.872
		C116.724,43.987,128,53.415,128,63.919C128,80.518,99.881,93.501,64,93.501z"/>
</g>
<g id="Layer_1">
</g>
</svg>
