<?xml version="1.0" encoding="iso-8859-1"?>
<!-- Generator: Adobe Illustrator 19.0.1, SVG Export Plug-In . SVG Version: 6.00 Build 0)  -->
<svg version="1.1" xmlns="http://www.w3.org/2000/svg" xmlns:xlink="http://www.w3.org/1999/xlink" x="0px" y="0px"
	 viewBox="0 0 128 128" style="enable-background:new 0 0 128 128;" xml:space="preserve">
<g id="_x36_">
	<path style="fill:#2D2D2D;" d="M127.295,51.184c-3.895-21.625-30.297-37.831-63.287-37.831c-33.022,0-59.407,16.222-63.303,37.863
		C0,58.189,0,79.381,0,79.381c0,8.817,7.133,15.581,16.799,21.336v4.44c0,5.226,4.264,9.49,9.49,9.49H43.89
		c1.763,0,3.495-0.721,4.745-1.972l11.974-11.975c1.875-1.859,4.921-1.859,6.781,0l11.975,11.975
		c1.282,1.266,2.966,1.972,4.761,1.972h17.585c5.242,0,9.49-4.264,9.49-9.49v-4.344C120.851,95.042,128,88.246,128,79.381
		C128,79.381,128,60.193,127.295,51.184z M106.392,105.157c0,2.581-2.1,4.681-4.681,4.681H84.126c-0.513,0-0.994-0.208-1.363-0.561
		L70.789,97.302c-3.735-3.735-9.826-3.751-13.577,0l-11.974,11.975c-0.353,0.353-0.85,0.561-1.347,0.561H26.289
		c-2.581,0-4.681-2.1-4.681-4.681V66.3c0-4.216,3.03-7.294,7.198-7.294H99.21c4.168,0,7.181,3.078,7.181,7.294V105.157z
		 M111.201,70.757V66.3c0-6.893-5.146-12.103-11.99-12.103H28.806c-6.845,0-12.007,5.21-12.007,12.103v4.136
		C5.033,67.807,5.033,56.746,5.033,56.746c0-21.625,25.905-38.584,58.975-38.584s58.975,16.96,58.975,38.584
		C122.983,56.746,121.832,67.507,111.201,70.757z M41.582,97.259c-6.958,0-12.62-5.661-12.62-12.62c0-6.958,5.661-12.62,12.62-12.62
		s12.62,5.661,12.62,12.62C54.202,91.597,48.54,97.259,41.582,97.259z M41.582,76.828c-4.307,0-7.811,3.504-7.811,7.811
		c0,4.307,3.504,7.811,7.811,7.811s7.811-3.504,7.811-7.811C49.393,80.332,45.888,76.828,41.582,76.828z M86.466,97.259
		c-6.958,0-12.62-5.661-12.62-12.62c0-6.958,5.661-12.62,12.62-12.62c6.958,0,12.62,5.661,12.62,12.62
		C99.086,91.597,93.425,97.259,86.466,97.259z M86.466,76.828c-4.307,0-7.811,3.504-7.811,7.811c0,4.307,3.504,7.811,7.811,7.811
		c4.307,0,7.811-3.504,7.811-7.811C94.277,80.332,90.773,76.828,86.466,76.828z"/>
</g>
<g id="Layer_1">
</g>
</svg>
