<?xml version="1.0" encoding="iso-8859-1"?>
<!-- Generator: Adobe Illustrator 19.0.1, SVG Export Plug-In . SVG Version: 6.00 Build 0)  -->
<svg version="1.1" xmlns="http://www.w3.org/2000/svg" xmlns:xlink="http://www.w3.org/1999/xlink" x="0px" y="0px"
	 viewBox="0 0 128 128" style="enable-background:new 0 0 128 128;" xml:space="preserve">
<g id="_x37_">
	<path style="fill:#2D2D2D;" d="M114.67,47.909c0-17.865-6.764-24.893-6.764-24.893s-2.814,0.389-6.904,0.995l3.965-8.365
		l-1.12-1.151c-1.866-1.944-13.558-6.126-31.3-11.18C50.625-2.951,33.04-2.174,18.455,22.036c-5.597,9.267-5.986,17.694-4.12,25.904
		c0.467,2.006,1.057,4.012,1.757,6.002c1.353,3.965,3.094,7.914,4.851,11.926c1.213,2.783,2.472,5.66,3.67,8.645
		c6.795,17.026-1.259,30.584-1.399,30.818l-1.43,2.301L69.564,128l0.98-1.99c0.606-1.259,5.209-10.713,7.401-16.621
		c6.468,3.281,17.041,3.094,21.877,1.819c6.064-1.602,4.354-10.278,3.327-15.44c-0.14-0.653-0.28-1.399-0.373-1.975
		c1.213-1.275,1.602-3.452,1.71-4.913l0.155-1.788l-3.374-1.182l2.41-2.099v-2.69c1.71-0.637,4.416-1.788,6.484-3.39
		c0.498-0.389,1.135-1.119,1.291-2.348c0.171-1.368-0.466-3.312-1.524-5.504C111.903,66.318,114.67,59.321,114.67,47.909z
		 M100.677,77.218l-1.664,0.497v3.98l-6.841,5.955l7.339,2.581c0,0.015-0.016,0.047-0.016,0.062l-0.373,0.078l-0.591,0.809
		c-0.824,1.166-0.544,2.519,0.031,5.489c1.259,6.328,1.275,9.702,0.062,10.029c-5.38,1.415-16.544,0.902-20.353-2.69l-2.97-2.783
		l-0.917,3.965c-0.7,3.094-4.727,11.864-7.075,16.777l-38.887-16.575c2.332-5.038,6.562-17.508,0.513-32.606
		c-1.213-3.047-2.488-5.971-3.716-8.785c-1.539-3.514-3.001-6.841-4.198-10.06h37.363c-1.151-1.648-1.835-3.654-1.835-5.8
		c0-2.161,0.684-4.167,1.835-5.815H18.098c-0.544-5.769,0.529-11.553,4.354-17.881C32.154,8.322,43.722-0.075,71.274,7.793
		c17.959,5.131,25.142,7.992,27.863,9.267l-3.685,7.79c-9.749,1.477-22.048,3.498-24.489,4.618c-3.421,1.539-5.038,5.318-5.66,8.645
		c0.435-0.062,0.886-0.093,1.353-0.093c5.582,0,10.107,4.54,10.107,10.122c0,5.582-4.525,10.107-10.107,10.107
		c-0.42,0-0.824-0.031-1.213-0.078c0.746,3.218,2.457,6.733,5.52,8.132c3.39,1.555,28.159,5.24,35.124,6.251
		c0.373,0.762,0.606,1.399,0.7,1.866C104.268,76.145,100.723,77.202,100.677,77.218z M72.876,48.139
		c0,3.435-2.784,6.219-6.219,6.219c-0.258,0-0.507-0.019-0.746-0.048c-1.799-0.211-3.358-1.196-4.344-2.603
		c-0.708-1.014-1.129-2.249-1.129-3.569c0-1.33,0.421-2.564,1.129-3.579c0.976-1.387,2.497-2.354,4.258-2.593
		c0.268-0.038,0.545-0.057,0.832-0.057C70.091,41.91,72.876,44.704,72.876,48.139z"/>
</g>
<g id="Layer_1">
</g>
</svg>
