<?xml version="1.0" encoding="iso-8859-1"?>
<!-- Generator: Adobe Illustrator 19.0.1, SVG Export Plug-In . SVG Version: 6.00 Build 0)  -->
<svg version="1.1" xmlns="http://www.w3.org/2000/svg" xmlns:xlink="http://www.w3.org/1999/xlink" x="0px" y="0px"
	 viewBox="0 0 128 128" style="enable-background:new 0 0 128 128;" xml:space="preserve">
<g id="_x38_">
	<path style="fill:#2D2D2D;" d="M121.75,76.658c-5.909,26.252-28.867,44.577-55.813,44.577c-25.816,0-47.951-16.807-54.974-41.299
		L4.133,91.108L0,88.589L11.382,69.99l18.599,11.382l-2.535,4.133l-11.947-7.314c6.264,22.28,27.059,38.199,50.437,38.199
		c24.282,0,45.771-17.162,51.099-40.799L121.75,76.658z M128,37.858l-4.235-2.351l-5.373,9.685
		c-7.91-22.813-29.607-38.426-54.07-38.426c-25.782,0-48.493,17.346-55.228,42.183l4.675,1.268
		c6.164-22.732,26.952-38.607,50.553-38.607c22.676,0,42.753,14.654,49.76,35.961l-11.043-6.128l-2.349,4.235l17.564,9.748
		L128,37.858z M30.522,68.263c0.099,2.456,0.595,4.443,1.488,5.96c1.701,2.854,4.735,4.279,9.101,4.279
		c3.544,0,6.22-0.99,8.028-2.969c1.807-1.98,2.711-4.274,2.711-6.885c0-2.483-0.773-4.441-2.32-5.875
		c-1.036-0.951-1.831-1.427-2.384-1.427c0.738-0.284,1.447-0.815,2.128-1.597c1.078-1.247,1.618-2.78,1.618-4.598
		c0-2.567-0.903-4.615-2.711-6.14c-1.807-1.526-4.185-2.289-7.133-2.289c-1.588,0-2.928,0.192-4.019,0.575
		c-1.092,0.383-2.035,0.937-2.828,1.66c-1.063,1.022-1.843,2.136-2.339,3.343c-0.467,1.376-0.73,2.83-0.787,4.363h5.662
		c-0.028-1.518,0.293-2.731,0.966-3.641c0.672-0.907,1.723-1.362,3.153-1.362c1.246,0,2.211,0.371,2.898,1.107
		c0.687,0.739,1.03,1.696,1.03,2.874c0,1.816-0.672,3.022-2.015,3.618c-0.778,0.355-2.15,0.547-4.115,0.574v4.342
		c2.009,0,3.48,0.192,4.414,0.575c1.641,0.681,2.461,2.037,2.461,4.066c0,1.533-0.443,2.706-1.328,3.522
		c-0.885,0.815-1.921,1.223-3.111,1.223c-1.939,0-3.277-0.744-4.013-2.236c-0.397-0.807-0.594-1.829-0.594-3.065H30.522z
		 M75.647,54.64c-0.214-2.439-1.171-4.394-2.874-5.864c-1.703-1.468-3.987-2.203-6.854-2.203c-1.987,0-3.693,0.454-5.119,1.362
		c-1.425,0.908-2.579,2.106-3.458,3.598c-1.022,1.744-1.71,3.931-2.065,6.556c-0.199,1.476-0.298,3.391-0.298,5.745
		c0,4.017,0.717,7.295,2.15,9.835c1.845,3.25,4.711,4.873,8.598,4.873c3.62,0,6.288-1.099,8.003-3.3
		c1.719-2.198,2.576-4.738,2.576-7.618c0-2.895-0.877-5.272-2.628-7.131c-1.753-1.859-3.998-2.789-6.737-2.789
		c-1.277,0-2.412,0.207-3.406,0.618c-0.993,0.412-1.866,1.064-2.618,1.958c0.17-2.384,0.482-4.186,0.937-5.406
		c0.837-2.214,2.242-3.32,4.214-3.32c1.321,0,2.307,0.482,2.959,1.447c0.383,0.596,0.575,1.143,0.575,1.638H75.647z M61.066,67.966
		c0-2.058,0.596-3.547,1.788-4.471c0.795-0.623,1.71-0.937,2.746-0.937c1.278,0,2.356,0.479,3.236,1.438
		c0.88,0.957,1.318,2.338,1.318,4.14c0,1.618-0.386,2.933-1.159,3.948c-0.774,1.014-1.834,1.521-3.183,1.521
		c-1.376,0-2.511-0.525-3.405-1.575C61.513,70.981,61.066,69.625,61.066,67.966z M89.865,46.659c-3.932,0-6.688,1.384-8.271,4.15
		c-1.581,2.769-2.371,6.699-2.371,11.793s0.79,9.017,2.371,11.77c1.583,2.753,4.339,4.129,8.271,4.129
		c3.929,0,6.685-1.376,8.268-4.129c1.583-2.753,2.374-6.676,2.374-11.77s-0.791-9.025-2.374-11.793
		C96.55,48.044,93.794,46.659,89.865,46.659z M85.416,62.603c0-3.718,0.29-6.471,0.873-8.259c0.58-1.788,1.772-2.683,3.576-2.683
		c1.801,0,2.983,0.896,3.544,2.683c0.558,1.788,0.839,4.541,0.839,8.259c0,3.547-0.281,6.261-0.839,8.14
		c-0.561,1.881-1.744,2.821-3.544,2.821c-1.804,0-2.996-0.94-3.576-2.821C85.706,68.863,85.416,66.15,85.416,62.603z"/>
</g>
<g id="Layer_1">
</g>
</svg>
