<?xml version="1.0" encoding="iso-8859-1"?>
<!-- Generator: Adobe Illustrator 19.0.1, SVG Export Plug-In . SVG Version: 6.00 Build 0)  -->
<svg version="1.1" xmlns="http://www.w3.org/2000/svg" xmlns:xlink="http://www.w3.org/1999/xlink" x="0px" y="0px"
	 viewBox="0 0 128 128" style="enable-background:new 0 0 128 128;" xml:space="preserve">
<g id="_x39_">
	<path style="fill:#2D2D2D;" d="M19.018,102.895c-0.982,0-1.972-0.076-2.961-0.229c-4.997-0.77-9.401-3.446-12.393-7.535
		c-2.993-4.091-4.214-9.099-3.435-14.102l5.834-41.177c1.191-8.403,8.488-14.74,16.975-14.74l81.884-0.007h0.002
		c8.482,0,15.778,6.331,16.974,14.728l5.874,41.227c0.775,4.978-0.445,9.988-3.438,14.079c-2.99,4.085-7.393,6.758-12.396,7.528
		c-4.989,0.78-10.003-0.436-14.092-3.424c-4.086-2.986-6.764-7.385-7.544-12.386l-1.983-12.824H39.677l-1.983,12.821
		c-0.769,4.996-3.441,9.394-7.522,12.38C26.891,101.636,23.012,102.895,19.018,102.895z M35.609,69.287h56.779l2.604,16.84
		c0.584,3.747,2.592,7.045,5.655,9.284c3.063,2.239,6.81,3.149,10.564,2.566l0.005-0.001c3.749-0.576,7.048-2.58,9.289-5.641
		c2.244-3.066,3.159-6.823,2.573-10.576l-5.879-41.258c-0.863-6.073-6.141-10.653-12.277-10.652l-81.884,0.007
		C16.9,29.857,11.622,34.44,10.762,40.517L4.923,81.727c-0.589,3.781,0.326,7.535,2.57,10.602c2.243,3.065,5.542,5.071,9.289,5.648
		c3.76,0.584,7.522-0.327,10.587-2.571c3.057-2.238,5.059-5.532,5.635-9.276L35.609,69.287z M30.405,61.687v-7.746h7.745
		c1.747,0,3.163-1.416,3.163-3.163s-1.416-3.163-3.163-3.163h-7.745V39.87c0-1.747-1.416-3.163-3.163-3.163
		c-1.747,0-3.163,1.416-3.163,3.163v7.745h-7.745c-1.747,0-3.163,1.416-3.163,3.163s1.416,3.163,3.163,3.163h7.745v7.746
		c0,1.747,1.416,3.163,3.163,3.163C28.989,64.851,30.405,63.434,30.405,61.687z M95.685,42.169c0-2.384,1.933-4.317,4.317-4.317
		c2.384,0,4.317,1.933,4.317,4.317c0,2.384-1.933,4.317-4.317,4.317C97.617,46.487,95.685,44.554,95.685,42.169z M100.002,64.048
		c2.384,0,4.317-1.933,4.317-4.317c0-2.384-1.933-4.317-4.317-4.317c-2.384,0-4.317,1.933-4.317,4.317
		C95.685,62.115,97.617,64.048,100.002,64.048z M108.783,46.633c2.384,0,4.317,1.933,4.317,4.317c0,2.384-1.933,4.317-4.317,4.317
		s-4.317-1.933-4.317-4.317C104.465,48.566,106.398,46.633,108.783,46.633z M86.904,50.95c0,2.384,1.933,4.317,4.317,4.317
		s4.317-1.933,4.317-4.317c0-2.384-1.933-4.317-4.317-4.317S86.904,48.566,86.904,50.95z M62.068,55.881H47.665v4.745h14.404V55.881
		z M81.274,55.881H66.871v4.745h14.404V55.881z"/>
</g>
<g id="Layer_1">
</g>
</svg>
